<svg width="1267" height="391" viewBox="0 0 1267 391" fill="none" xmlns="http://www.w3.org/2000/svg">
<path d="M199.058 374.044C197.758 373.144 164.658 306.444 150.158 275.344C143.858 261.744 137.758 255.844 130.158 255.844C124.758 255.944 119.358 258.444 106.758 267.244C100.958 271.244 87.6576 280.244 77.1576 287.244C66.7576 294.244 57.7576 300.544 57.1576 301.244C56.6576 301.944 55.3577 302.744 54.3577 303.144C53.4577 303.544 45.2577 308.744 36.2577 314.844C27.2577 320.844 19.4577 325.844 18.8577 325.844C16.9577 325.844 15.3577 322.844 16.2577 320.944C16.7577 319.844 25.9577 309.844 36.7577 298.644C47.5577 287.444 59.6576 274.744 63.6576 270.344C80.4576 252.144 128.458 204.944 132.658 202.544C141.858 197.344 151.258 198.144 157.758 204.644C162.258 209.244 166.058 218.944 172.058 241.344C174.558 250.744 178.158 262.844 180.058 268.444C181.958 274.044 184.258 282.744 185.158 287.944C186.958 298.844 192.658 324.144 199.558 351.844C203.058 365.644 204.158 371.844 203.558 373.144C202.558 374.944 200.858 375.344 199.058 374.044Z" fill="#4EBDCD"/>
<path d="M314.358 315.944C291.392 310.284 268.632 304.295 245.958 298.444C226.558 293.344 213.258 289.144 207.558 286.244C199.158 282.044 195.058 274.744 195.858 265.744C196.558 258.744 201.258 252.444 220.158 232.844C228.958 223.744 238.158 213.944 240.558 211.044C242.958 208.144 249.058 202.344 254.058 198.144C263.758 189.944 272.158 182.144 299.358 155.644C308.858 146.344 317.258 138.844 317.958 138.844C319.958 138.844 321.958 141.544 321.358 143.244C321.058 144.044 306.358 166.344 288.658 192.944C270.958 219.444 255.558 242.944 254.458 245.244C251.758 250.344 251.558 257.944 253.958 260.644C254.858 261.644 255.658 263.044 255.658 263.644C255.658 265.844 263.158 269.844 315.758 295.944C345.258 310.644 369.658 323.244 369.858 323.944C370.658 326.044 368.858 328.844 366.858 328.744C365.958 328.644 342.258 322.944 314.358 315.944Z" fill="#4EBDCD"/>
<path d="M194.158 195.844C183.758 193.144 170.658 189.944 165.158 188.844C159.658 187.644 147.258 184.044 137.658 180.844C128.058 177.544 106.958 171.044 90.7576 166.344C74.5576 161.644 60.7576 157.344 59.9576 156.744C58.2576 155.244 58.3576 154.344 60.2576 152.344C61.4576 151.244 63.0576 150.944 66.4576 151.344C71.4576 151.944 108.358 154.544 125.158 155.444C130.658 155.744 143.458 156.644 153.658 157.444C185.858 159.944 191.858 159.044 196.558 151.544C200.158 145.644 200.458 140.744 198.658 116.244C197.658 103.644 196.358 84.3441 195.658 73.3441C195.058 62.3441 193.858 45.9441 193.158 36.9441C192.458 28.0441 192.058 19.9441 192.358 19.1441C192.658 18.3441 193.958 17.8441 195.558 18.0441C197.858 18.3441 198.458 19.2441 200.758 26.3441C202.158 30.7441 204.058 37.5441 205.058 41.3441C205.958 45.2441 210.358 60.2441 214.658 74.8441C223.558 104.944 237.758 157.444 240.258 169.244C243.458 184.644 240.458 194.344 231.258 198.844C224.258 202.244 216.058 201.544 194.158 195.844Z" fill="#4EBDCD"/>
<g clip-path="url(#clip0_1839_8)">
<path d="M393.274 243V149.909H404.599V233H448.07V243H393.274ZM493.551 244.454C486.793 244.454 480.963 242.97 476.062 240C471.191 237 467.431 232.818 464.783 227.454C462.165 222.061 460.856 215.788 460.856 208.636C460.856 201.485 462.165 195.182 464.783 189.727C467.431 184.242 471.115 179.97 475.834 176.909C480.583 173.818 486.123 172.273 492.455 172.273C496.108 172.273 499.715 172.879 503.278 174.091C506.839 175.303 510.081 177.273 513.004 180C515.927 182.697 518.255 186.273 519.99 190.727C521.725 195.182 522.593 200.667 522.593 207.182V211.727H468.527V202.454H511.634C511.634 198.515 510.842 195 509.259 191.909C507.707 188.818 505.485 186.379 502.593 184.591C499.73 182.803 496.352 181.909 492.455 181.909C488.163 181.909 484.449 182.97 481.313 185.091C478.208 187.182 475.818 189.909 474.144 193.273C472.47 196.636 471.633 200.242 471.633 204.091V210.273C471.633 215.546 472.546 220.015 474.372 223.682C476.229 227.318 478.802 230.091 482.089 232C485.377 233.879 489.198 234.818 493.551 234.818C496.382 234.818 498.94 234.424 501.222 233.636C503.536 232.818 505.53 231.606 507.205 230C508.878 228.364 510.172 226.333 511.085 223.909L521.497 226.818C520.401 230.333 518.56 233.424 515.972 236.091C513.384 238.727 510.188 240.788 506.383 242.273C502.577 243.727 498.3 244.454 493.551 244.454ZM538.986 243V173.182H549.762V243H538.986ZM544.466 161.545C542.366 161.545 540.554 160.833 539.032 159.409C537.54 157.985 536.794 156.273 536.794 154.273C536.794 152.273 537.54 150.561 539.032 149.136C540.554 147.712 542.366 147 544.466 147C546.567 147 548.363 147.712 549.854 149.136C551.377 150.561 552.137 152.273 552.137 154.273C552.137 156.273 551.377 157.985 549.854 159.409C548.363 160.833 546.567 161.545 544.466 161.545ZM619.183 188.818L609.502 191.546C608.893 189.939 607.995 188.379 606.808 186.864C605.651 185.318 604.068 184.046 602.059 183.046C600.05 182.046 597.478 181.546 594.341 181.546C590.05 181.546 586.472 182.53 583.611 184.5C580.779 186.439 579.364 188.909 579.364 191.909C579.364 194.576 580.338 196.682 582.286 198.227C584.235 199.773 587.279 201.061 591.419 202.091L601.831 204.636C608.101 206.151 612.775 208.47 615.85 211.591C618.924 214.682 620.461 218.667 620.461 223.546C620.461 227.546 619.305 231.121 616.991 234.273C614.708 237.424 611.511 239.909 607.401 241.727C603.292 243.546 598.512 244.454 593.064 244.454C585.91 244.454 579.989 242.909 575.3 239.818C570.612 236.727 567.644 232.212 566.396 226.273L576.624 223.727C577.599 227.485 579.44 230.303 582.15 232.182C584.889 234.061 588.467 235 592.881 235C597.904 235 601.892 233.939 604.844 231.818C607.828 229.667 609.32 227.091 609.32 224.091C609.32 221.667 608.467 219.636 606.762 218C605.057 216.333 602.439 215.091 598.908 214.273L587.219 211.546C580.795 210.03 576.077 207.682 573.063 204.5C570.079 201.288 568.588 197.273 568.588 192.454C568.588 188.515 569.699 185.03 571.921 182C574.174 178.97 577.233 176.591 581.1 174.864C584.996 173.136 589.41 172.273 594.341 172.273C601.283 172.273 606.732 173.788 610.689 176.818C614.677 179.848 617.508 183.848 619.183 188.818ZM647.459 201V243H636.683V149.909H647.459V184.091H648.374C650.017 180.485 652.482 177.621 655.771 175.5C659.089 173.349 663.503 172.273 669.013 172.273C673.793 172.273 677.978 173.227 681.571 175.136C685.163 177.015 687.948 179.909 689.927 183.818C691.936 187.697 692.941 192.636 692.941 198.636V243H682.164V199.364C682.164 193.818 680.719 189.53 677.826 186.5C674.964 183.439 670.992 181.909 665.908 181.909C662.377 181.909 659.21 182.651 656.41 184.136C653.64 185.621 651.448 187.788 649.834 190.636C648.251 193.485 647.459 196.939 647.459 201ZM742.063 244.454C735.306 244.454 729.476 242.97 724.574 240C719.703 237 715.944 232.818 713.296 227.454C710.677 222.061 709.368 215.788 709.368 208.636C709.368 201.485 710.677 195.182 713.296 189.727C715.944 184.242 719.628 179.97 724.346 176.909C729.095 173.818 734.635 172.273 740.967 172.273C744.62 172.273 748.228 172.879 751.79 174.091C755.351 175.303 758.593 177.273 761.516 180C764.439 182.697 766.768 186.273 768.502 190.727C770.237 195.182 771.105 200.667 771.105 207.182V211.727H717.04V202.454H760.146C760.146 198.515 759.355 195 757.771 191.909C756.219 188.818 753.997 186.379 751.105 184.591C748.243 182.803 744.864 181.909 740.967 181.909C736.675 181.909 732.961 182.97 729.825 185.091C726.72 187.182 724.33 189.909 722.657 193.273C720.982 196.636 720.145 200.242 720.145 204.091V210.273C720.145 215.546 721.058 220.015 722.885 223.682C724.741 227.318 727.314 230.091 730.602 232C733.89 233.879 737.711 234.818 742.063 234.818C744.894 234.818 747.452 234.424 749.735 233.636C752.048 232.818 754.042 231.606 755.717 230C757.391 228.364 758.685 226.333 759.598 223.909L770.009 226.818C768.913 230.333 767.072 233.424 764.484 236.091C761.896 238.727 758.701 240.788 754.895 242.273C751.09 243.727 746.812 244.454 742.063 244.454ZM798.275 201V243H787.498V173.182H797.91V184.091H798.823C800.467 180.546 802.963 177.697 806.312 175.545C809.661 173.364 813.984 172.273 819.281 172.273C824.03 172.273 828.185 173.242 831.747 175.182C835.308 177.091 838.079 180 840.057 183.909C842.036 187.788 843.026 192.697 843.026 198.636V243H832.249V199.364C832.249 193.879 830.818 189.606 827.957 186.546C825.094 183.455 821.168 181.909 816.176 181.909C812.735 181.909 809.661 182.651 806.951 184.136C804.272 185.621 802.157 187.788 800.604 190.636C799.051 193.485 798.275 196.939 798.275 201ZM900.345 243V149.909H931.943C939.28 149.909 945.278 151.227 949.935 153.864C954.623 156.47 958.094 160 960.346 164.455C962.599 168.909 963.726 173.879 963.726 179.364C963.726 184.849 962.599 189.833 960.346 194.318C958.124 198.803 954.685 202.379 950.026 205.046C945.369 207.682 939.403 209 932.126 209H909.478V199H931.761C936.784 199 940.818 198.136 943.862 196.409C946.906 194.682 949.113 192.348 950.483 189.409C951.884 186.439 952.584 183.091 952.584 179.364C952.584 175.636 951.884 172.303 950.483 169.364C949.113 166.424 946.891 164.121 943.816 162.455C940.742 160.758 936.662 159.909 931.579 159.909H911.669V243H900.345ZM1008.25 244.454C1001.92 244.454 996.359 242.954 991.58 239.954C986.832 236.954 983.118 232.758 980.438 227.364C977.79 221.97 976.465 215.667 976.465 208.454C976.465 201.182 977.79 194.833 980.438 189.409C983.118 183.985 986.832 179.773 991.58 176.773C996.359 173.773 1001.92 172.273 1008.25 172.273C1014.58 172.273 1020.12 173.773 1024.87 176.773C1029.65 179.773 1033.36 183.985 1036.01 189.409C1038.69 194.833 1040.03 201.182 1040.03 208.454C1040.03 215.667 1038.69 221.97 1036.01 227.364C1033.36 232.758 1029.65 236.954 1024.87 239.954C1020.12 242.954 1014.58 244.454 1008.25 244.454ZM1008.25 234.818C1013.06 234.818 1017.01 233.591 1020.12 231.136C1023.23 228.682 1025.52 225.454 1027.02 221.454C1028.51 217.454 1029.25 213.121 1029.25 208.454C1029.25 203.788 1028.51 199.439 1027.02 195.409C1025.52 191.379 1023.23 188.121 1020.12 185.636C1017.01 183.151 1013.06 181.909 1008.25 181.909C1003.44 181.909 999.481 183.151 996.375 185.636C993.27 188.121 990.972 191.379 989.48 195.409C987.988 199.439 987.243 203.788 987.243 208.454C987.243 213.121 987.988 217.454 989.48 221.454C990.972 225.454 993.27 228.682 996.375 231.136C999.481 233.591 1003.44 234.818 1008.25 234.818ZM1069.98 243L1048.61 173.182H1059.94L1075.1 226.636H1075.83L1090.81 173.182H1102.31L1117.11 226.454H1117.84L1133 173.182H1144.32L1122.95 243H1112.36L1097.02 189.364H1095.92L1080.58 243H1069.98ZM1185.59 244.454C1178.84 244.454 1173.01 242.97 1168.1 240C1163.23 237 1159.47 232.818 1156.83 227.454C1154.21 222.061 1152.9 215.788 1152.9 208.636C1152.9 201.485 1154.21 195.182 1156.83 189.727C1159.47 184.242 1163.16 179.97 1167.88 176.909C1172.63 173.818 1178.17 172.273 1184.5 172.273C1188.15 172.273 1191.76 172.879 1195.32 174.091C1198.88 175.303 1202.12 177.273 1205.05 180C1207.97 182.697 1210.3 186.273 1212.03 190.727C1213.77 195.182 1214.64 200.667 1214.64 207.182V211.727H1160.57V202.454H1203.68C1203.68 198.515 1202.88 195 1201.3 191.909C1199.75 188.818 1197.53 186.379 1194.63 184.591C1191.77 182.803 1188.39 181.909 1184.5 181.909C1180.2 181.909 1176.49 182.97 1173.36 185.091C1170.25 187.182 1167.86 189.909 1166.19 193.273C1164.51 196.636 1163.68 200.242 1163.68 204.091V210.273C1163.68 215.546 1164.59 220.015 1166.41 223.682C1168.27 227.318 1170.84 230.091 1174.13 232C1177.42 233.879 1181.24 234.818 1185.59 234.818C1188.42 234.818 1190.98 234.424 1193.26 233.636C1195.58 232.818 1197.57 231.606 1199.25 230C1200.92 228.364 1202.21 226.333 1203.13 223.909L1213.54 226.818C1212.44 230.333 1210.6 233.424 1208.01 236.091C1205.43 238.727 1202.23 240.788 1198.43 242.273C1194.62 243.727 1190.34 244.454 1185.59 244.454ZM1231.03 243V173.182H1241.44V183.727H1242.17C1243.45 180.273 1245.76 177.47 1249.11 175.318C1252.46 173.167 1256.23 172.091 1260.44 172.091C1261.23 172.091 1262.22 172.106 1263.4 172.136C1264.59 172.167 1265.49 172.212 1266.1 172.273V183.182C1265.73 183.091 1264.9 182.955 1263.59 182.773C1262.31 182.561 1260.95 182.454 1259.52 182.454C1256.11 182.454 1253.07 183.167 1250.39 184.591C1247.74 185.985 1245.64 187.924 1244.09 190.409C1242.57 192.864 1241.8 195.667 1241.8 198.818V243H1231.03Z" fill="#4EBDCD"/>
</g>
<defs>
<clipPath id="clip0_1839_8">
<rect width="874" height="98" fill="white" transform="translate(393 147)"/>
</clipPath>
</defs>
</svg>
