<svg viewBox="0 0 168 168" fill="none" xmlns="http://www.w3.org/2000/svg">
<rect width="168" height="168" fill="white"/>
<path d="M96.3094 42.2648L85.8985 19.9354C85.3185 18.6882 83.5508 18.6882 82.9709 19.9354L56.9022 75.8327C54.3659 81.2767 54.3659 87.5614 56.9022 93.0055L65.6221 111.705C66.202 112.953 67.9697 112.953 68.5496 111.705L96.3094 52.1859C97.7766 49.047 97.7766 45.4107 96.3094 42.2648Z" fill="black"/>
<path d="M100.312 57.1324L72.5529 116.652C71.0856 119.798 71.0856 123.434 72.5529 126.573L82.9636 148.903C83.5435 150.15 85.3112 150.15 85.8911 148.903L111.96 93.0054C114.496 87.5614 114.496 81.2763 111.96 75.8327L103.24 57.1324C102.66 55.8852 100.892 55.8852 100.312 57.1324Z" fill="black"/>
</svg>
